<svg xmlns="http://www.w3.org/2000/svg" xmlns:xlink="http://www.w3.org/1999/xlink" width="286" zoomAndPan="magnify" viewBox="0 0 214.5 37.5" height="50" preserveAspectRatio="xMidYMid meet" version="1.2"><defs><clipPath id="5c9ec341fb"><path d="M 49.269531 0.410156 L 81.835938 0.410156 L 81.835938 36.664062 L 49.269531 36.664062 Z M 49.269531 0.410156 "/></clipPath></defs><g id="7f8843bea0"><g style="fill:#000000;fill-opacity:1;"><g transform="translate(79.044083, 28.338517)"><path style="stroke:none" d="M 4.707031 -12.355469 L 4.707031 -4.964844 C 4.707031 -4.394531 4.832031 -3.972656 5.082031 -3.703125 C 5.316406 -3.445312 5.6875 -3.316406 6.195312 -3.316406 C 6.710938 -3.316406 7.089844 -3.449219 7.335938 -3.707031 C 7.589844 -3.980469 7.71875 -4.398438 7.71875 -4.964844 L 7.71875 -13.015625 L 12.050781 -13.015625 L 12.050781 -4.980469 C 12.050781 -3.753906 11.78125 -2.707031 11.246094 -1.835938 C 10.710938 -0.964844 9.988281 -0.308594 9.082031 0.136719 C 8.199219 0.566406 7.21875 0.785156 6.144531 0.785156 C 5.066406 0.785156 4.097656 0.570312 3.234375 0.140625 C 2.347656 -0.296875 1.648438 -0.960938 1.136719 -1.84375 C 0.632812 -2.714844 0.378906 -3.761719 0.378906 -4.980469 L 0.378906 -13.015625 L 4.707031 -13.015625 Z M 3.386719 -12.355469 L 4.046875 -12.355469 L 4.046875 -11.695312 L 1.039062 -11.695312 L 1.039062 -12.355469 L 1.699219 -12.355469 L 1.699219 -4.980469 C 1.699219 -3.996094 1.890625 -3.171875 2.277344 -2.503906 C 2.65625 -1.851562 3.171875 -1.363281 3.824219 -1.039062 C 4.5 -0.703125 5.273438 -0.535156 6.144531 -0.535156 C 7.015625 -0.535156 7.800781 -0.707031 8.503906 -1.050781 C 9.179688 -1.382812 9.71875 -1.875 10.121094 -2.527344 C 10.527344 -3.183594 10.730469 -4.003906 10.730469 -4.980469 L 10.730469 -12.355469 L 11.390625 -12.355469 L 11.390625 -11.695312 L 8.378906 -11.695312 L 8.378906 -12.355469 L 9.039062 -12.355469 L 9.039062 -4.964844 C 9.039062 -4.050781 8.792969 -3.328125 8.296875 -2.804688 C 7.789062 -2.265625 7.089844 -1.996094 6.195312 -1.996094 C 5.296875 -1.996094 4.601562 -2.269531 4.105469 -2.8125 C 3.628906 -3.335938 3.386719 -4.054688 3.386719 -4.964844 Z M 3.386719 -12.355469 "/></g></g><g style="fill:#000000;fill-opacity:1;"><g transform="translate(94.985904, 28.338517)"><path style="stroke:none" d="M 10.640625 -12.355469 L 10.640625 -9.285156 L 6.707031 -9.285156 L 6.707031 -9.945312 L 7.367188 -9.945312 L 7.367188 0.660156 L 3.035156 0.660156 L 3.035156 -9.945312 L 3.695312 -9.945312 L 3.695312 -9.285156 L -0.238281 -9.285156 L -0.238281 -13.015625 L 10.640625 -13.015625 Z M 9.320312 -12.355469 L 9.980469 -12.355469 L 9.980469 -11.695312 L 0.421875 -11.695312 L 0.421875 -12.355469 L 1.082031 -12.355469 L 1.082031 -9.945312 L 0.421875 -9.945312 L 0.421875 -10.605469 L 4.355469 -10.605469 L 4.355469 0 L 3.695312 0 L 3.695312 -0.660156 L 6.707031 -0.660156 L 6.707031 0 L 6.046875 0 L 6.046875 -10.605469 L 9.980469 -10.605469 L 9.980469 -9.945312 L 9.320312 -9.945312 Z M 9.320312 -12.355469 "/></g></g><g style="fill:#000000;fill-opacity:1;"><g transform="translate(108.922061, 28.338517)"><path style="stroke:none" d="M 0.429688 -13.015625 L 4.761719 -13.015625 L 4.761719 0.660156 L 0.429688 0.660156 Z M 1.75 -11.695312 L 1.75 -0.660156 L 3.441406 -0.660156 L 3.441406 -11.695312 Z M 1.75 -11.695312 "/></g></g><g style="fill:#000000;fill-opacity:1;"><g transform="translate(117.650516, 28.338517)"><path style="stroke:none" d="M 7.730469 0.398438 L 3.574219 -5.058594 L 4.101562 -5.457031 L 4.761719 -5.457031 L 4.761719 0.660156 L 0.429688 0.660156 L 0.429688 -13.015625 L 4.761719 -13.015625 L 4.761719 -6.933594 L 4.101562 -6.933594 L 3.574219 -7.335938 L 7.894531 -13.015625 L 13.121094 -13.015625 L 7.488281 -5.890625 L 6.96875 -6.300781 L 7.488281 -6.710938 L 13.292969 0.660156 L 7.929688 0.660156 Z M 8.78125 -0.398438 L 8.253906 0 L 8.253906 -0.660156 L 11.933594 -0.660156 L 11.933594 0 L 11.414062 0.410156 L 6.128906 -6.300781 L 11.242188 -12.765625 L 11.757812 -12.355469 L 11.757812 -11.695312 L 8.21875 -11.695312 L 8.21875 -12.355469 L 8.746094 -11.957031 L 3.441406 -4.976562 L 3.441406 -12.355469 L 4.101562 -12.355469 L 4.101562 -11.695312 L 1.089844 -11.695312 L 1.089844 -12.355469 L 1.75 -12.355469 L 1.75 0 L 1.089844 0 L 1.089844 -0.660156 L 4.101562 -0.660156 L 4.101562 0 L 3.441406 0 L 3.441406 -7.414062 Z M 8.78125 -0.398438 "/></g></g><g style="fill:#000000;fill-opacity:1;"><g transform="translate(133.451592, 28.338517)"><path style="stroke:none" d="M 4.707031 -12.355469 L 4.707031 -4.964844 C 4.707031 -4.394531 4.832031 -3.972656 5.082031 -3.703125 C 5.316406 -3.445312 5.6875 -3.316406 6.195312 -3.316406 C 6.710938 -3.316406 7.089844 -3.449219 7.335938 -3.707031 C 7.589844 -3.980469 7.71875 -4.398438 7.71875 -4.964844 L 7.71875 -13.015625 L 12.050781 -13.015625 L 12.050781 -4.980469 C 12.050781 -3.753906 11.78125 -2.707031 11.246094 -1.835938 C 10.710938 -0.964844 9.988281 -0.308594 9.082031 0.136719 C 8.199219 0.566406 7.21875 0.785156 6.144531 0.785156 C 5.066406 0.785156 4.097656 0.570312 3.234375 0.140625 C 2.347656 -0.296875 1.648438 -0.960938 1.136719 -1.84375 C 0.632812 -2.714844 0.378906 -3.761719 0.378906 -4.980469 L 0.378906 -13.015625 L 4.707031 -13.015625 Z M 3.386719 -12.355469 L 4.046875 -12.355469 L 4.046875 -11.695312 L 1.039062 -11.695312 L 1.039062 -12.355469 L 1.699219 -12.355469 L 1.699219 -4.980469 C 1.699219 -3.996094 1.890625 -3.171875 2.277344 -2.503906 C 2.65625 -1.851562 3.171875 -1.363281 3.824219 -1.039062 C 4.5 -0.703125 5.273438 -0.535156 6.144531 -0.535156 C 7.015625 -0.535156 7.800781 -0.707031 8.503906 -1.050781 C 9.179688 -1.382812 9.71875 -1.875 10.121094 -2.527344 C 10.527344 -3.183594 10.730469 -4.003906 10.730469 -4.980469 L 10.730469 -12.355469 L 11.390625 -12.355469 L 11.390625 -11.695312 L 8.378906 -11.695312 L 8.378906 -12.355469 L 9.039062 -12.355469 L 9.039062 -4.964844 C 9.039062 -4.050781 8.792969 -3.328125 8.296875 -2.804688 C 7.789062 -2.265625 7.089844 -1.996094 6.195312 -1.996094 C 5.296875 -1.996094 4.601562 -2.269531 4.105469 -2.8125 C 3.628906 -3.335938 3.386719 -4.054688 3.386719 -4.964844 Z M 3.386719 -12.355469 "/></g></g><g style="fill:#000000;fill-opacity:1;"><g transform="translate(149.393412, 28.338517)"><path style="stroke:none" d="M 10.640625 -12.355469 L 10.640625 -9.285156 L 6.707031 -9.285156 L 6.707031 -9.945312 L 7.367188 -9.945312 L 7.367188 0.660156 L 3.035156 0.660156 L 3.035156 -9.945312 L 3.695312 -9.945312 L 3.695312 -9.285156 L -0.238281 -9.285156 L -0.238281 -13.015625 L 10.640625 -13.015625 Z M 9.320312 -12.355469 L 9.980469 -12.355469 L 9.980469 -11.695312 L 0.421875 -11.695312 L 0.421875 -12.355469 L 1.082031 -12.355469 L 1.082031 -9.945312 L 0.421875 -9.945312 L 0.421875 -10.605469 L 4.355469 -10.605469 L 4.355469 0 L 3.695312 0 L 3.695312 -0.660156 L 6.707031 -0.660156 L 6.707031 0 L 6.046875 0 L 6.046875 -10.605469 L 9.980469 -10.605469 L 9.980469 -9.945312 L 9.320312 -9.945312 Z M 9.320312 -12.355469 "/></g></g><g style="fill:#000000;fill-opacity:1;"><g transform="translate(163.32957, 28.338517)"><path style="stroke:none" d="M 0.429688 -13.015625 L 4.761719 -13.015625 L 4.761719 0.660156 L 0.429688 0.660156 Z M 1.75 -11.695312 L 1.75 -0.660156 L 3.441406 -0.660156 L 3.441406 -11.695312 Z M 1.75 -11.695312 "/></g></g><g style="fill:#ffffff;fill-opacity:1;"><g transform="translate(79.044083, 28.338517)"><path style="stroke:none" d="M 4.046875 -12.359375 L 4.046875 -4.96875 C 4.046875 -4.226562 4.226562 -3.65625 4.59375 -3.25 C 4.957031 -2.851562 5.492188 -2.65625 6.203125 -2.65625 C 6.898438 -2.65625 7.4375 -2.851562 7.8125 -3.25 C 8.1875 -3.65625 8.375 -4.226562 8.375 -4.96875 L 8.375 -12.359375 L 11.390625 -12.359375 L 11.390625 -4.984375 C 11.390625 -3.878906 11.15625 -2.941406 10.6875 -2.171875 C 10.21875 -1.410156 9.585938 -0.835938 8.796875 -0.453125 C 8.003906 -0.0664062 7.117188 0.125 6.140625 0.125 C 5.171875 0.125 4.300781 -0.0625 3.53125 -0.4375 C 2.757812 -0.820312 2.148438 -1.398438 1.703125 -2.171875 C 1.253906 -2.941406 1.03125 -3.878906 1.03125 -4.984375 L 1.03125 -12.359375 Z M 4.046875 -12.359375 "/></g></g><g style="fill:#ffffff;fill-opacity:1;"><g transform="translate(94.985904, 28.338517)"><path style="stroke:none" d="M 9.984375 -12.359375 L 9.984375 -9.953125 L 6.703125 -9.953125 L 6.703125 0 L 3.703125 0 L 3.703125 -9.953125 L 0.421875 -9.953125 L 0.421875 -12.359375 Z M 9.984375 -12.359375 "/></g></g><g style="fill:#ffffff;fill-opacity:1;"><g transform="translate(108.922061, 28.338517)"><path style="stroke:none" d="M 4.109375 -12.359375 L 4.109375 0 L 1.09375 0 L 1.09375 -12.359375 Z M 4.109375 -12.359375 "/></g></g><g style="fill:#ffffff;fill-opacity:1;"><g transform="translate(117.650516, 28.338517)"><path style="stroke:none" d="M 8.265625 0 L 4.109375 -5.453125 L 4.109375 0 L 1.09375 0 L 1.09375 -12.359375 L 4.109375 -12.359375 L 4.109375 -6.9375 L 8.21875 -12.359375 L 11.765625 -12.359375 L 6.96875 -6.296875 L 11.9375 0 Z M 8.265625 0 "/></g></g><g style="fill:#ffffff;fill-opacity:1;"><g transform="translate(133.451592, 28.338517)"><path style="stroke:none" d="M 4.046875 -12.359375 L 4.046875 -4.96875 C 4.046875 -4.226562 4.226562 -3.65625 4.59375 -3.25 C 4.957031 -2.851562 5.492188 -2.65625 6.203125 -2.65625 C 6.898438 -2.65625 7.4375 -2.851562 7.8125 -3.25 C 8.1875 -3.65625 8.375 -4.226562 8.375 -4.96875 L 8.375 -12.359375 L 11.390625 -12.359375 L 11.390625 -4.984375 C 11.390625 -3.878906 11.15625 -2.941406 10.6875 -2.171875 C 10.21875 -1.410156 9.585938 -0.835938 8.796875 -0.453125 C 8.003906 -0.0664062 7.117188 0.125 6.140625 0.125 C 5.171875 0.125 4.300781 -0.0625 3.53125 -0.4375 C 2.757812 -0.820312 2.148438 -1.398438 1.703125 -2.171875 C 1.253906 -2.941406 1.03125 -3.878906 1.03125 -4.984375 L 1.03125 -12.359375 Z M 4.046875 -12.359375 "/></g></g><g style="fill:#ffffff;fill-opacity:1;"><g transform="translate(149.393412, 28.338517)"><path style="stroke:none" d="M 9.984375 -12.359375 L 9.984375 -9.953125 L 6.703125 -9.953125 L 6.703125 0 L 3.703125 0 L 3.703125 -9.953125 L 0.421875 -9.953125 L 0.421875 -12.359375 Z M 9.984375 -12.359375 "/></g></g><g style="fill:#ffffff;fill-opacity:1;"><g transform="translate(163.32957, 28.338517)"><path style="stroke:none" d="M 4.109375 -12.359375 L 4.109375 0 L 1.09375 0 L 1.09375 -12.359375 Z M 4.109375 -12.359375 "/></g></g><g clip-rule="nonzero" clip-path="url(#5c9ec341fb)"><path style=" stroke:none;fill-rule:evenodd;fill:#ff3131;fill-opacity:1;" d="M 81.816406 36.53125 L 79.054688 33.773438 L 75.871094 30.589844 L 66.722656 21.4375 L 81.550781 6.609375 L 66.171875 6.609375 L 60.683594 12.097656 L 60.683594 16.230469 L 67.382812 9.535156 L 74.492188 9.535156 L 63.621094 20.40625 L 62.585938 21.4375 L 74.71875 33.570312 L 59.324219 33.585938 L 59.324219 0.398438 L 56.910156 2.484375 L 49.800781 8.628906 L 49.292969 9.066406 L 49.292969 27.625 L 51.789062 25.128906 L 55.039062 21.875 L 55.039062 17.742188 L 52.214844 20.566406 L 52.214844 10.390625 L 56.402344 6.777344 L 56.402344 36.53125 L 57.878906 36.515625 Z M 81.816406 36.53125 "/></g></g></svg>