<svg xmlns="http://www.w3.org/2000/svg" xmlns:xlink="http://www.w3.org/1999/xlink" width="500" zoomAndPan="magnify" viewBox="0 0 375 374.999991" height="500" preserveAspectRatio="xMidYMid meet" version="1.2"><defs><clipPath id="072cf555b5"><path d="M 93.78125 135.726562 L 171 135.726562 L 171 221.199219 L 93.78125 221.199219 Z M 93.78125 135.726562 "/></clipPath></defs><g id="f2545b30ff"><g style="fill:#000000;fill-opacity:1;"><g transform="translate(153.013676, 194.249987)"><path style="stroke:none" d="M 5.773438 -15.152344 L 5.773438 -6.085938 C 5.773438 -5.390625 5.925781 -4.875 6.230469 -4.539062 C 6.515625 -4.226562 6.972656 -4.070312 7.597656 -4.070312 C 8.226562 -4.070312 8.695312 -4.230469 8.996094 -4.546875 C 9.308594 -4.882812 9.464844 -5.394531 9.464844 -6.085938 L 9.464844 -15.960938 L 14.773438 -15.960938 L 14.773438 -6.109375 C 14.773438 -4.601562 14.445312 -3.316406 13.792969 -2.253906 C 13.132812 -1.183594 12.25 -0.378906 11.136719 0.167969 C 10.054688 0.695312 8.851562 0.960938 7.53125 0.960938 C 6.210938 0.960938 5.023438 0.699219 3.96875 0.175781 C 2.878906 -0.363281 2.023438 -1.175781 1.394531 -2.257812 C 0.773438 -3.328125 0.464844 -4.609375 0.464844 -6.109375 L 0.464844 -15.960938 L 5.773438 -15.960938 Z M 4.15625 -15.152344 L 4.964844 -15.152344 L 4.964844 -14.34375 L 1.273438 -14.34375 L 1.273438 -15.152344 L 2.082031 -15.152344 L 2.082031 -6.109375 C 2.082031 -4.902344 2.320312 -3.890625 2.792969 -3.070312 C 3.257812 -2.269531 3.890625 -1.671875 4.6875 -1.277344 C 5.515625 -0.863281 6.464844 -0.660156 7.53125 -0.660156 C 8.601562 -0.660156 9.566406 -0.867188 10.425781 -1.289062 C 11.257812 -1.695312 11.917969 -2.296875 12.414062 -3.101562 C 12.910156 -3.90625 13.15625 -4.910156 13.15625 -6.109375 L 13.15625 -15.152344 L 13.964844 -15.152344 L 13.964844 -14.34375 L 10.273438 -14.34375 L 10.273438 -15.152344 L 11.082031 -15.152344 L 11.082031 -6.085938 C 11.082031 -4.964844 10.78125 -4.082031 10.171875 -3.4375 C 9.554688 -2.78125 8.695312 -2.449219 7.597656 -2.449219 C 6.496094 -2.449219 5.640625 -2.78125 5.035156 -3.449219 C 4.449219 -4.089844 4.15625 -4.972656 4.15625 -6.085938 Z M 4.15625 -15.152344 "/></g></g><g style="fill:#000000;fill-opacity:1;"><g transform="translate(172.562461, 194.249987)"><path style="stroke:none" d="M 13.046875 -15.152344 L 13.046875 -11.386719 L 8.222656 -11.386719 L 8.222656 -12.195312 L 9.035156 -12.195312 L 9.035156 0.808594 L 3.722656 0.808594 L 3.722656 -12.195312 L 4.53125 -12.195312 L 4.53125 -11.386719 L -0.292969 -11.386719 L -0.292969 -15.960938 L 13.046875 -15.960938 Z M 11.429688 -15.152344 L 12.238281 -15.152344 L 12.238281 -14.34375 L 0.519531 -14.34375 L 0.519531 -15.152344 L 1.328125 -15.152344 L 1.328125 -12.195312 L 0.519531 -12.195312 L 0.519531 -13.003906 L 5.34375 -13.003906 L 5.34375 0 L 4.53125 0 L 4.53125 -0.808594 L 8.222656 -0.808594 L 8.222656 0 L 7.414062 0 L 7.414062 -13.003906 L 12.238281 -13.003906 L 12.238281 -12.195312 L 11.429688 -12.195312 Z M 11.429688 -15.152344 "/></g></g><g style="fill:#000000;fill-opacity:1;"><g transform="translate(189.651785, 194.249987)"><path style="stroke:none" d="M 0.527344 -15.960938 L 5.839844 -15.960938 L 5.839844 0.808594 L 0.527344 0.808594 Z M 2.148438 -14.34375 L 2.148438 -0.808594 L 4.21875 -0.808594 L 4.21875 -14.34375 Z M 2.148438 -14.34375 "/></g></g><g style="fill:#000000;fill-opacity:1;"><g transform="translate(200.355123, 194.249987)"><path style="stroke:none" d="M 9.480469 0.492188 L 4.386719 -6.199219 L 5.03125 -6.691406 L 5.839844 -6.691406 L 5.839844 0.808594 L 0.527344 0.808594 L 0.527344 -15.960938 L 5.839844 -15.960938 L 5.839844 -8.503906 L 5.03125 -8.503906 L 4.382812 -8.996094 L 9.679688 -15.960938 L 16.089844 -15.960938 L 9.183594 -7.226562 L 8.546875 -7.726562 L 9.183594 -8.226562 L 16.304688 0.808594 L 9.722656 0.808594 Z M 10.765625 -0.492188 L 10.125 0 L 10.125 -0.808594 L 14.632812 -0.808594 L 14.632812 0 L 14 0.5 L 7.515625 -7.726562 L 13.785156 -15.65625 L 14.417969 -15.152344 L 14.417969 -14.34375 L 10.082031 -14.34375 L 10.082031 -15.152344 L 10.726562 -14.664062 L 4.21875 -6.101562 L 4.21875 -15.152344 L 5.03125 -15.152344 L 5.03125 -14.34375 L 1.339844 -14.34375 L 1.339844 -15.152344 L 2.148438 -15.152344 L 2.148438 0 L 1.339844 0 L 1.339844 -0.808594 L 5.03125 -0.808594 L 5.03125 0 L 4.21875 0 L 4.21875 -9.089844 Z M 10.765625 -0.492188 "/></g></g><g style="fill:#000000;fill-opacity:1;"><g transform="translate(219.731319, 194.249987)"><path style="stroke:none" d="M 5.773438 -15.152344 L 5.773438 -6.085938 C 5.773438 -5.390625 5.925781 -4.875 6.230469 -4.539062 C 6.515625 -4.226562 6.972656 -4.070312 7.597656 -4.070312 C 8.226562 -4.070312 8.695312 -4.230469 8.996094 -4.546875 C 9.308594 -4.882812 9.464844 -5.394531 9.464844 -6.085938 L 9.464844 -15.960938 L 14.773438 -15.960938 L 14.773438 -6.109375 C 14.773438 -4.601562 14.445312 -3.316406 13.792969 -2.253906 C 13.132812 -1.183594 12.25 -0.378906 11.136719 0.167969 C 10.054688 0.695312 8.851562 0.960938 7.53125 0.960938 C 6.210938 0.960938 5.023438 0.699219 3.96875 0.175781 C 2.878906 -0.363281 2.023438 -1.175781 1.394531 -2.257812 C 0.773438 -3.328125 0.464844 -4.609375 0.464844 -6.109375 L 0.464844 -15.960938 L 5.773438 -15.960938 Z M 4.15625 -15.152344 L 4.964844 -15.152344 L 4.964844 -14.34375 L 1.273438 -14.34375 L 1.273438 -15.152344 L 2.082031 -15.152344 L 2.082031 -6.109375 C 2.082031 -4.902344 2.320312 -3.890625 2.792969 -3.070312 C 3.257812 -2.269531 3.890625 -1.671875 4.6875 -1.277344 C 5.515625 -0.863281 6.464844 -0.660156 7.53125 -0.660156 C 8.601562 -0.660156 9.566406 -0.867188 10.425781 -1.289062 C 11.257812 -1.695312 11.917969 -2.296875 12.414062 -3.101562 C 12.910156 -3.90625 13.15625 -4.910156 13.15625 -6.109375 L 13.15625 -15.152344 L 13.964844 -15.152344 L 13.964844 -14.34375 L 10.273438 -14.34375 L 10.273438 -15.152344 L 11.082031 -15.152344 L 11.082031 -6.085938 C 11.082031 -4.964844 10.78125 -4.082031 10.171875 -3.4375 C 9.554688 -2.78125 8.695312 -2.449219 7.597656 -2.449219 C 6.496094 -2.449219 5.640625 -2.78125 5.035156 -3.449219 C 4.449219 -4.089844 4.15625 -4.972656 4.15625 -6.085938 Z M 4.15625 -15.152344 "/></g></g><g style="fill:#000000;fill-opacity:1;"><g transform="translate(239.280104, 194.249987)"><path style="stroke:none" d="M 13.046875 -15.152344 L 13.046875 -11.386719 L 8.222656 -11.386719 L 8.222656 -12.195312 L 9.035156 -12.195312 L 9.035156 0.808594 L 3.722656 0.808594 L 3.722656 -12.195312 L 4.53125 -12.195312 L 4.53125 -11.386719 L -0.292969 -11.386719 L -0.292969 -15.960938 L 13.046875 -15.960938 Z M 11.429688 -15.152344 L 12.238281 -15.152344 L 12.238281 -14.34375 L 0.519531 -14.34375 L 0.519531 -15.152344 L 1.328125 -15.152344 L 1.328125 -12.195312 L 0.519531 -12.195312 L 0.519531 -13.003906 L 5.34375 -13.003906 L 5.34375 0 L 4.53125 0 L 4.53125 -0.808594 L 8.222656 -0.808594 L 8.222656 0 L 7.414062 0 L 7.414062 -13.003906 L 12.238281 -13.003906 L 12.238281 -12.195312 L 11.429688 -12.195312 Z M 11.429688 -15.152344 "/></g></g><g style="fill:#000000;fill-opacity:1;"><g transform="translate(256.369428, 194.249987)"><path style="stroke:none" d="M 0.527344 -15.960938 L 5.839844 -15.960938 L 5.839844 0.808594 L 0.527344 0.808594 Z M 2.148438 -14.34375 L 2.148438 -0.808594 L 4.21875 -0.808594 L 4.21875 -14.34375 Z M 2.148438 -14.34375 "/></g></g><g style="fill:#ffffff;fill-opacity:1;"><g transform="translate(153.013676, 194.249987)"><path style="stroke:none" d="M 4.96875 -15.140625 L 4.96875 -6.078125 C 4.96875 -5.171875 5.1875 -4.472656 5.625 -3.984375 C 6.070312 -3.503906 6.726562 -3.265625 7.59375 -3.265625 C 8.457031 -3.265625 9.117188 -3.503906 9.578125 -3.984375 C 10.035156 -4.472656 10.265625 -5.171875 10.265625 -6.078125 L 10.265625 -15.140625 L 13.96875 -15.140625 L 13.96875 -6.109375 C 13.96875 -4.753906 13.675781 -3.609375 13.09375 -2.671875 C 12.519531 -1.734375 11.75 -1.023438 10.78125 -0.546875 C 9.8125 -0.078125 8.726562 0.15625 7.53125 0.15625 C 6.332031 0.15625 5.257812 -0.078125 4.3125 -0.546875 C 3.375 -1.015625 2.628906 -1.71875 2.078125 -2.65625 C 1.535156 -3.601562 1.265625 -4.753906 1.265625 -6.109375 L 1.265625 -15.140625 Z M 4.96875 -15.140625 "/></g></g><g style="fill:#ffffff;fill-opacity:1;"><g transform="translate(172.562461, 194.249987)"><path style="stroke:none" d="M 12.234375 -15.140625 L 12.234375 -12.1875 L 8.21875 -12.1875 L 8.21875 0 L 4.53125 0 L 4.53125 -12.1875 L 0.515625 -12.1875 L 0.515625 -15.140625 Z M 12.234375 -15.140625 "/></g></g><g style="fill:#ffffff;fill-opacity:1;"><g transform="translate(189.651785, 194.249987)"><path style="stroke:none" d="M 5.03125 -15.140625 L 5.03125 0 L 1.34375 0 L 1.34375 -15.140625 Z M 5.03125 -15.140625 "/></g></g><g style="fill:#ffffff;fill-opacity:1;"><g transform="translate(200.355123, 194.249987)"><path style="stroke:none" d="M 10.125 0 L 5.03125 -6.6875 L 5.03125 0 L 1.34375 0 L 1.34375 -15.140625 L 5.03125 -15.140625 L 5.03125 -8.5 L 10.078125 -15.140625 L 14.421875 -15.140625 L 8.546875 -7.71875 L 14.625 0 Z M 10.125 0 "/></g></g><g style="fill:#ffffff;fill-opacity:1;"><g transform="translate(219.731319, 194.249987)"><path style="stroke:none" d="M 4.96875 -15.140625 L 4.96875 -6.078125 C 4.96875 -5.171875 5.1875 -4.472656 5.625 -3.984375 C 6.070312 -3.503906 6.726562 -3.265625 7.59375 -3.265625 C 8.457031 -3.265625 9.117188 -3.503906 9.578125 -3.984375 C 10.035156 -4.472656 10.265625 -5.171875 10.265625 -6.078125 L 10.265625 -15.140625 L 13.96875 -15.140625 L 13.96875 -6.109375 C 13.96875 -4.753906 13.675781 -3.609375 13.09375 -2.671875 C 12.519531 -1.734375 11.75 -1.023438 10.78125 -0.546875 C 9.8125 -0.078125 8.726562 0.15625 7.53125 0.15625 C 6.332031 0.15625 5.257812 -0.078125 4.3125 -0.546875 C 3.375 -1.015625 2.628906 -1.71875 2.078125 -2.65625 C 1.535156 -3.601562 1.265625 -4.753906 1.265625 -6.109375 L 1.265625 -15.140625 Z M 4.96875 -15.140625 "/></g></g><g style="fill:#ffffff;fill-opacity:1;"><g transform="translate(239.280104, 194.249987)"><path style="stroke:none" d="M 12.234375 -15.140625 L 12.234375 -12.1875 L 8.21875 -12.1875 L 8.21875 0 L 4.53125 0 L 4.53125 -12.1875 L 0.515625 -12.1875 L 0.515625 -15.140625 Z M 12.234375 -15.140625 "/></g></g><g style="fill:#ffffff;fill-opacity:1;"><g transform="translate(256.369428, 194.249987)"><path style="stroke:none" d="M 5.03125 -15.140625 L 5.03125 0 L 1.34375 0 L 1.34375 -15.140625 Z M 5.03125 -15.140625 "/></g></g><g clip-rule="nonzero" clip-path="url(#072cf555b5)"><path style=" stroke:none;fill-rule:evenodd;fill:#ff3131;fill-opacity:1;" d="M 170.675781 221.070312 L 164.15625 214.554688 L 135.011719 185.410156 L 164.15625 156.273438 L 170.050781 150.375 L 133.710938 150.375 L 132.703125 151.386719 L 120.75 163.335938 L 120.75 173.105469 L 136.574219 157.285156 L 153.375 157.285156 L 127.683594 182.96875 L 125.238281 185.40625 L 153.90625 214.074219 L 117.535156 214.109375 L 117.535156 135.699219 L 111.828125 140.628906 L 95.03125 155.140625 L 93.832031 156.179688 L 93.832031 200.023438 L 99.726562 194.128906 L 107.410156 186.441406 L 107.410156 176.675781 L 100.738281 183.347656 L 100.738281 159.308594 L 110.628906 150.765625 L 110.628906 221.070312 L 114.121094 221.03125 Z M 170.675781 221.070312 "/></g></g></svg>